<?xml version="1.0" encoding="utf-8"?>
<!-- Generator: Adobe Illustrator 24.1.1, SVG Export Plug-In . SVG Version: 6.00 Build 0)  -->
<svg version="1.1" id="Layer_1" xmlns="http://www.w3.org/2000/svg" xmlns:xlink="http://www.w3.org/1999/xlink" x="0px" y="0px"
	 viewBox="0 0 1190.6 1190.6" style="enable-background:new 0 0 1190.6 1190.6;" xml:space="preserve">
<style type="text/css">
	.st0{fill:#FFFFFF;}
	.st1{fill:#3B0142;}
	.st2{fill:none;}
</style>
<g>
	<g>
		<path class="st0" d="M92.4,459.3l80.5,85v-60.4c0-7.9-1.6-13.4-4.8-16.3c-3.2-2.9-8.2-4.8-14.8-5.8v-2.6h45.5v2.6
			c-5,0.5-8.7,1.9-11.2,4.1c-2.4,2.2-4,4.7-4.7,7.7c-0.7,2.9-1.1,6.4-1.1,10.3v108.7h-3.3L81.9,491.1v74.3c0,6.2,1.3,11.5,4,15.9
			s7.6,6.9,14.7,7.4v2.6H53.5v-2.6c13.2-1.1,19.7-7.6,19.6-19.4v-87.3c-0.4-0.2-0.8-0.7-1.4-1.3c-0.5-0.5-1.4-1.4-2.7-2.6
			c-1.3-1.2-2.4-2.3-3.4-3.2c-8-7.7-15-12-21.1-12.9v-2.6H92.4z"/>
		<path class="st0" d="M213.9,524.8c0-9,1.5-17.5,4.6-25.7c3.1-8.2,7.6-15.4,13.6-21.5s13.2-11,21.7-14.4c8.5-3.4,18.1-5.2,28.9-5.2
			c10.9,0,20.6,1.7,29.1,5.2s15.7,8.3,21.7,14.6c5.9,6.2,10.4,13.4,13.5,21.5c3,8.2,4.6,16.8,4.6,26c0,9.1-1.5,17.7-4.4,25.8
			c-3,8.1-7.3,15.2-13,21.4c-5.7,6.2-12.9,11.1-21.6,14.7c-8.7,3.6-18.5,5.4-29.5,5.4c-11.8,0-22.1-2-30.9-6c-8.8-4-16-9.4-21.6-16
			c-5.6-6.6-9.7-13.9-12.4-21.9C215.3,540.7,213.9,532.7,213.9,524.8z M245.3,523.1c0,9,0.7,17.8,2,26.5c1.3,8.7,4.8,16.8,10.4,24.4
			c5.6,7.6,14.1,11.3,25.4,11.3c15.8,0,26-6.4,30.4-19.1s6.7-25.8,6.7-39c0-10.3-0.9-20-2.7-29c-1.8-9-5.4-16.7-11-23.2
			c-5.5-6.4-13.3-9.6-23.4-9.6c-11.3,0-19.8,3.7-25.4,11c-5.6,7.3-9,15.1-10.4,23.3S245.3,515.7,245.3,523.1z"/>
		<path class="st0" d="M379.4,459.3h92.2c4.2,0,7.8-0.5,10.6-1.6h2.6l0.7,31h-2.5c-1.3-9.1-3.5-14.9-6.7-17.3
			c-3.1-2.5-7-3.7-11.5-3.7h-24.6v104c0,3.5,0.4,6.4,1.2,8.8s2.4,4.4,4.7,5.9s5.9,2.3,10.5,2.3v2.6h-62.1v-2.6
			c6.9,0,11.3-1.6,13.3-4.7c2-3.1,3-7.2,3-12.4v-104h-24.6c-4.2,0-7.6,1.3-10.2,4c-2.6,2.7-5.2,8.3-7.7,17.1h-2.8l0.7-31h2.6
			C371.6,458.7,375.1,459.3,379.4,459.3z"/>
		<path class="st0" d="M592.6,459.3l1.1,29.6h-2.6c-1.2-5-2.5-9-4-12.3c-1.5-3.2-3.5-5.7-6.2-7.4c-2.7-1.7-6.4-2.6-11-2.6h-26.6
			v55.4h21.2c6.3,0,10.9-1.4,13.8-4.2c2.9-2.8,4.6-7,5.1-12.5h2.6v38.7h-2.6c-0.9-5.9-3.1-9.8-6.5-11.7c-3.5-2-7.6-3-12.4-3h-21.2
			v38c0,11,5.7,16.5,17,16.5h8.1c5.4,0,9.9-0.7,13.3-2.1c3.4-1.4,6.3-3.9,8.5-7.4c2.2-3.5,4.3-8.4,6-14.8h2.6l-2,31.7h-99.4v-2.6
			c6.9,0,11.4-1.6,13.4-4.7c2-3.1,3-7.2,3-12.3v-92.4c0-4.8-0.9-8.9-2.8-12.3c-1.9-3.3-6.1-5-12.8-5h-0.9v-2.6H592.6z"/>
		<path class="st1" d="M610.2,459.3h72.1c11.8,0,22.3,1.8,31.7,5.4c9.3,3.6,17.2,8.6,23.4,15c6.3,6.4,11,13.7,14.2,21.8
			s4.7,16.8,4.7,25.8c0,8.8-1.5,17.1-4.4,24.7c-3,7.6-7.4,14.4-13.4,20.3c-6,5.9-13.4,10.5-22.4,13.8c-9,3.3-19.1,5-30.3,5h-75.6
			v-2.6c6.9,0,11.4-1.5,13.4-4.6c2-3.1,3-7.2,3-12.4v-92.3c0-4.9-0.9-9-2.7-12.4s-6-5.1-12.7-5.1h-1V459.3z M655.8,468.1v96.7
			c0,4.7,0.5,8.4,1.6,11.1c1,2.7,3,4.8,5.9,6c2.9,1.3,7.2,1.9,13,1.9c5.2,0,9.9-0.3,14-1s8-2,11.6-4.1c5.4-3.1,9.8-7.4,13.3-12.8
			c3.5-5.4,6-11.4,7.7-17.9c1.6-6.5,2.4-13.2,2.4-20.2c0-7.2-1-14.3-2.9-21.4s-5-13.7-9.4-19.7c-4.3-6-10.2-10.9-17.6-14.6
			s-16.3-5.6-26.9-5.6C664.8,466.6,660.6,467.1,655.8,468.1z"/>
		<path class="st1" d="M772.1,461.7v-2.4h62v2.6c-6.9,0-11.3,1.6-13.3,4.7s-3,7.3-3,12.4v92.6c0,2.9,0.3,5.6,0.8,7.9
			c0.5,2.3,2,4.4,4.3,6.3c2.3,1.9,5.8,2.8,10.5,2.8h0.7v2.6h-62v-2.6c6.8,0,11.2-1.6,13.3-4.7c2-3.1,3-7.2,3-12.4V479
			c0-6.1-1.3-10.5-4-13.2C781.7,463,777.6,461.7,772.1,461.7z"/>
		<path class="st1" d="M921.7,458L966,572.1c2.4,5.9,5.2,9.9,8.4,12c3.2,2.2,7.2,3.7,11.9,4.4v2.6h-62.5v-2.6
			c8.5-0.5,12.8-3.2,12.8-8.1c0-0.8-0.1-1.9-0.4-3.3s-0.6-2.9-1.1-4.5c-0.4-1.6-0.7-2.6-0.9-2.9l-11-28h-39.4l-9.4,27
			c-1.2,3.2-1.8,6.2-1.8,8.8c0,4.1,1.2,6.8,3.6,8.2c2.4,1.4,5.2,2.3,8.5,2.8v2.6h-39.6v-2.6c4.1-0.4,8-2.3,11.6-5.8s7-9.7,10.4-18.9
			L904.5,458H921.7z M886.9,533.1h32.9l-17-44.4L886.9,533.1z"/>
	</g>
	<g>
		<path class="st1" d="M1088.9,248.9v65.7h-46.1v43.8h-46.1v108.4l68.2,115.2l0.4,0.7l5.9,10.1l5.9-10.1l0.4-0.7l68.2-115.2l0.1-0.1
			V248.9H1088.9z M1053.8,325.5h35.1v130.3h-35.1V325.5z M1007.7,369.3h35.1v86.5h-35.1V369.3z M1081.6,553.8l-10.3,17.4l-10.3-17.4
			l-51.6-87h123.8L1081.6,553.8z M1135,455.8h-35.1v-196h35.1V455.8z"/>
		<polygon class="st0" points="1081.6,553.8 1071.3,571.2 1061,553.8 		"/>
	</g>
	<g>
		<path class="st0" d="M1073.9,600.3l-0.8,4.7l-0.4,2.3c-0.1,0.8-0.4,1.5-0.5,2.3l-1.1,4.6c-0.4,1.5-0.9,3-1.3,4.6
			c-1.9,6-4.2,12-7.3,17.5c-3.1,5.5-6.8,10.7-11.2,15.2c-4.4,4.5-9.5,8.4-15.1,11.4c-11.2,6.1-23.9,8.7-36.5,9.1
			c-12.7,0.4-25.3-1.2-37.7-4.1c-6.2-1.4-12.3-3.1-18.3-5.1c-6-2-11.9-4.2-18-6.2c-12-4-24.2-7.5-36.5-10.5
			c-24.6-6-49.7-10.1-74.9-12.5c-25.2-2.5-50.6-2.9-75.9-2.9c-25.3,0.1-50.7,0.9-75.9,3.6c-12.6,1.4-25.1,3.2-37.5,6.2
			c-6.1,1.5-12.2,3.3-18,5.8c-2.9,1.3-5.7,2.7-8.4,4.4c-2.6,1.7-5.1,3.8-7,6.3c-0.9,1.3-1.7,2.7-2.2,4.2c-0.5,1.5-0.7,3.1-0.7,4.6
			c0,1.6,0.3,3.1,0.7,4.6c0.4,1.5,1.2,2.9,1.8,4.3c1.6,2.7,3.6,5.2,6.1,7.1c2.5,1.9,5.4,3.3,8.4,4.3c6,1.8,12.7,1.6,18.6-0.5
			c6-2.1,10.8-6.5,15.3-10.8c2.2-2.3,4.2-4.7,5.8-7.5c1.5-2.7,2.5-5.9,2.1-9c-0.2-1.6-0.7-3.1-1.4-4.4c-0.8-1.4-1.8-2.6-2.9-3.7
			c-2.3-2.2-4.9-3.9-7.7-5.4c-5.6-2.9-11.7-4.8-17.9-6.3c-6.1-1.5-12.4-2.6-18.7-3.5c-12.6-1.7-25.2-2.5-37.9-2.7
			c-12.7-0.2-25.3,0.1-38,0.9c-25.3,1.6-50.5,5-75.1,10.8c-12.3,3-24.5,6.6-36.2,11.4c-2.9,1.2-5.8,2.5-8.7,3.9l-8.5,4.3
			c-5.7,2.8-11.5,5.3-17.4,7.6c-5.9,2.2-12,4.2-18.1,5.9c-6.1,1.7-12.3,2.9-18.6,3.9c-6.3,1-12.6,1.5-18.9,1.7
			c-6.3,0.2-12.7-0.1-19-0.8c-12.6-1.3-25.1-3.6-37.4-6.8c-12.3-3.1-24.4-7-36.3-11.2c-23.9-8.3-47.5-17.8-72.3-23.1
			c-6.2-1.3-12.4-2.5-18.7-3.3c-6.3-0.9-12.6-1.3-18.9-1.5c-12.7-0.3-25.4,0.7-37.8,2.8c12.5-2.2,25.2-3.2,37.8-2.9
			c6.3,0.2,12.7,0.6,18.9,1.5c6.3,0.8,12.5,1.9,18.7,3.2c24.8,5.4,48.4,14.8,72.4,23.1c12,4.2,24,8,36.3,11.1
			c12.3,3.1,24.8,5.4,37.4,6.7c6.3,0.6,12.6,1,19,0.8c6.3-0.2,12.6-0.7,18.9-1.7c6.3-1,12.5-2.3,18.6-3.9c6.1-1.7,12.1-3.7,18-5.9
			c5.9-2.3,11.7-4.8,17.4-7.6l8.5-4.3c2.8-1.4,5.7-2.7,8.7-3.9c11.7-4.9,23.9-8.5,36.2-11.4c24.7-5.9,49.9-9.2,75.2-10.9
			c12.6-0.8,25.3-1.1,38-0.9c12.7,0.2,25.3,1,37.9,2.7c6.3,0.9,12.5,1.9,18.7,3.5c6.1,1.5,12.2,3.4,17.9,6.3
			c2.8,1.5,5.5,3.2,7.8,5.4c1.1,1.1,2.1,2.4,2.9,3.8c0.8,1.4,1.3,2.9,1.5,4.5c0.4,3.2-0.6,6.4-2.2,9.2c-1.6,2.8-3.6,5.2-5.8,7.5
			c-2.2,2.3-4.6,4.3-7.1,6.3c-2.6,1.9-5.3,3.6-8.3,4.6c-6,2.2-12.6,2.4-18.7,0.5c-3-1-5.9-2.4-8.4-4.3c-2.5-2-4.6-4.5-6.2-7.2
			c-0.6-1.5-1.4-2.9-1.9-4.4c-0.4-1.5-0.8-3.1-0.8-4.7c0-1.6,0.2-3.2,0.7-4.7c0.5-1.5,1.3-2.9,2.2-4.2c1.9-2.5,4.4-4.7,7-6.4
			c2.7-1.7,5.5-3.2,8.4-4.4c5.8-2.5,11.9-4.3,18.1-5.8c12.3-3,24.9-4.8,37.5-6.2c25.2-2.7,50.6-3.5,75.9-3.6
			c25.3,0,50.7,0.4,75.9,2.9c25.2,2.4,50.3,6.5,74.9,12.6c12.3,3,24.5,6.5,36.5,10.5c6,2,12,4.2,18,6.2c6,2,12.1,3.7,18.3,5.2
			c12.3,2.9,25,4.5,37.7,4.1c12.6-0.4,25.4-3.1,36.5-9.1c5.6-3,10.7-6.9,15.1-11.4c4.4-4.5,8.2-9.7,11.3-15.2
			c3.1-5.5,5.4-11.5,7.3-17.5c0.4-1.5,0.9-3,1.3-4.6l1.1-4.6c0.2-0.8,0.4-1.5,0.5-2.3l0.4-2.3L1073.9,600.3z" style="stroke-width:1"/>
	</g>
</g>
</svg>
